<?xml version="1.0" encoding="UTF-8" standalone="no"?>
<!-- Created with Inkscape (http://www.inkscape.org/) -->

<svg
   xmlns:dc="http://purl.org/dc/elements/1.1/"
   xmlns:cc="http://creativecommons.org/ns#"
   xmlns:rdf="http://www.w3.org/1999/02/22-rdf-syntax-ns#"
   xmlns:svg="http://www.w3.org/2000/svg"
   xmlns="http://www.w3.org/2000/svg"
   xmlns:sodipodi="http://sodipodi.sourceforge.net/DTD/sodipodi-0.dtd"
   xmlns:inkscape="http://www.inkscape.org/namespaces/inkscape"
   width="48pt"
   height="48pt"
   viewBox="0 0 16.933334 16.933333"
   version="1.1"
   id="svg979"
   inkscape:version="0.92.4 (5da689c313, 2019-01-14)"
   sodipodi:docname="6 - Headphone.svg"
   inkscape:export-filename="E:\TR Design Studio Creative\Project Design\TR Creative Design\Icon Design\Project Hiring\Icon Icons\004 - Cinema\Send\03 - Flat\6 - Headphone.png"
   inkscape:export-xdpi="768"
   inkscape:export-ydpi="768">
  <defs
     id="defs973" />
  <sodipodi:namedview
     id="base"
     pagecolor="#ffffff"
     bordercolor="#666666"
     borderopacity="1.0"
     inkscape:pageopacity="0.0"
     inkscape:pageshadow="2"
     inkscape:zoom="4.561769"
     inkscape:cx="29.962518"
     inkscape:cy="30.178777"
     inkscape:document-units="pt"
     inkscape:current-layer="layer1"
     showgrid="false"
     units="pt"
     inkscape:window-width="1366"
     inkscape:window-height="716"
     inkscape:window-x="-8"
     inkscape:window-y="-8"
     inkscape:window-maximized="1"
     inkscape:snap-bbox="true"
     inkscape:bbox-nodes="true"
     inkscape:snap-nodes="false"
     showguides="false">
    <inkscape:grid
       type="xygrid"
       id="grid1526" />
    <sodipodi:guide
       position="0.97013909,15.963209"
       orientation="56.666615,0"
       id="guide1528"
       inkscape:locked="false" />
    <sodipodi:guide
       position="0.97013909,0.97016731"
       orientation="0,56.666667"
       id="guide1530"
       inkscape:locked="false" />
    <sodipodi:guide
       position="15.963195,0.97016731"
       orientation="-56.666615,0"
       id="guide1532"
       inkscape:locked="false" />
    <sodipodi:guide
       position="15.963195,15.963209"
       orientation="0,-56.666667"
       id="guide1534"
       inkscape:locked="false" />
  </sodipodi:namedview>
  <metadata
     id="metadata976">
    <rdf:RDF>
      <cc:Work
         rdf:about="">
        <dc:format>image/svg+xml</dc:format>
        <dc:type
           rdf:resource="http://purl.org/dc/dcmitype/StillImage" />
        <dc:title></dc:title>
      </cc:Work>
    </rdf:RDF>
  </metadata>
  <g
     inkscape:label="Layer 1"
     inkscape:groupmode="layer"
     id="layer1"
     transform="translate(0,-280.06668)">
    <g
       id="g304"
       transform="matrix(1.215011,0,0,1.215011,54.264362,-64.550745)"
       style="stroke-width:0.8230378">
      <path
         id="path580"
         d="m -33.675781,293.53906 c -0.09764,0.006 -0.184019,0.0653 -0.22461,0.1543 -0.433973,0.95159 -1.668144,1.50144 -2.501953,1.65234 -0.144174,0.0262 -0.239623,0.16453 -0.21289,0.3086 0.0262,0.14326 0.163255,0.23842 0.30664,0.21289 0.955039,-0.17284 2.338475,-0.7424 2.890625,-1.95313 0.06135,-0.1332 0.164594,-0.46593 0.164594,-0.46593 0,0 -0.378805,0.0882 -0.422406,0.091 z"
         style="color:#000000;font-style:normal;font-variant:normal;font-weight:normal;font-stretch:normal;font-size:medium;line-height:normal;font-family:sans-serif;font-variant-ligatures:normal;font-variant-position:normal;font-variant-caps:normal;font-variant-numeric:normal;font-variant-alternates:normal;font-feature-settings:normal;text-indent:0;text-align:start;text-decoration:none;text-decoration-line:none;text-decoration-style:solid;text-decoration-color:#000000;letter-spacing:normal;word-spacing:normal;text-transform:none;writing-mode:lr-tb;direction:ltr;text-orientation:mixed;dominant-baseline:auto;baseline-shift:baseline;text-anchor:start;white-space:normal;shape-padding:0;clip-rule:nonzero;display:inline;overflow:visible;visibility:visible;isolation:auto;mix-blend-mode:normal;color-interpolation:sRGB;color-interpolation-filters:linearRGB;solid-color:#000000;solid-opacity:1;vector-effect:none;fill:#595959;fill-opacity:1;fill-rule:nonzero;stroke:none;stroke-width:0.43552443;stroke-linecap:round;stroke-linejoin:round;stroke-miterlimit:4;stroke-dasharray:none;stroke-dashoffset:0;stroke-opacity:1;color-rendering:auto;image-rendering:auto;shape-rendering:auto;text-rendering:auto;enable-background:accumulate"
         inkscape:connector-curvature="0"
         sodipodi:nodetypes="ccccccccc" />
      <path
         id="path585"
         d="m -37.477552,296.74951 c -0.415288,0.10124 -0.840464,-0.15727 -0.941701,-0.57255 -0.101238,-0.41528 0.156802,-0.84235 0.57209,-0.94359 l 0.789382,-0.19244 c 0.415288,-0.10124 0.840916,0.15917 0.942153,0.57445 0.101238,0.41528 -0.157254,0.84046 -0.572542,0.9417 z"
         style="color:#000000;font-style:normal;font-variant:normal;font-weight:normal;font-stretch:normal;font-size:medium;line-height:normal;font-family:sans-serif;font-variant-ligatures:normal;font-variant-position:normal;font-variant-caps:normal;font-variant-numeric:normal;font-variant-alternates:normal;font-feature-settings:normal;text-indent:0;text-align:start;text-decoration:none;text-decoration-line:none;text-decoration-style:solid;text-decoration-color:#000000;letter-spacing:normal;word-spacing:normal;text-transform:none;writing-mode:lr-tb;direction:ltr;text-orientation:mixed;dominant-baseline:auto;baseline-shift:baseline;text-anchor:start;white-space:normal;shape-padding:0;clip-rule:nonzero;display:inline;overflow:visible;visibility:visible;isolation:auto;mix-blend-mode:normal;color-interpolation:sRGB;color-interpolation-filters:linearRGB;solid-color:#000000;solid-opacity:1;vector-effect:none;fill:#404040;fill-opacity:1;fill-rule:nonzero;stroke:none;stroke-width:0.43552443;stroke-linecap:round;stroke-linejoin:round;stroke-miterlimit:4;stroke-dasharray:none;stroke-dashoffset:0;stroke-opacity:1;color-rendering:auto;image-rendering:auto;shape-rendering:auto;text-rendering:auto;enable-background:accumulate"
         inkscape:connector-curvature="0" />
      <path
         id="path470"
         d="m -40.994141,285.55469 a 0.26460996,0.26460996 0 0 0 -0.18164,0.0684 c -0.523713,0.47999 -0.870419,0.89045 -1.275391,1.63086 -0.281156,0.51404 -0.545773,1.17385 -0.667969,2.32031 a 0.26460996,0.26460996 0 0 0 0.455079,0.20898 c 0.236637,-0.24959 0.42291,-0.39998 0.779296,-0.37109 a 0.26460996,0.26460996 0 0 0 0.279297,-0.20899 c 0.09381,-0.44827 0.264577,-0.95228 0.539063,-1.46093 0.333598,-0.58463 0.545855,-0.86119 0.998047,-1.39063 a 0.26460996,0.26460996 0 0 0 -0.136719,-0.42968 c -0.240987,-0.0608 -0.465969,-0.13717 -0.597656,-0.28126 a 0.26460996,0.26460996 0 0 0 -0.191407,-0.0859 z"
         style="color:#000000;font-style:normal;font-variant:normal;font-weight:normal;font-stretch:normal;font-size:medium;line-height:normal;font-family:sans-serif;font-variant-ligatures:normal;font-variant-position:normal;font-variant-caps:normal;font-variant-numeric:normal;font-variant-alternates:normal;font-feature-settings:normal;text-indent:0;text-align:start;text-decoration:none;text-decoration-line:none;text-decoration-style:solid;text-decoration-color:#000000;letter-spacing:normal;word-spacing:normal;text-transform:none;writing-mode:lr-tb;direction:ltr;text-orientation:mixed;dominant-baseline:auto;baseline-shift:baseline;text-anchor:start;white-space:normal;shape-padding:0;clip-rule:nonzero;display:inline;overflow:visible;visibility:visible;isolation:auto;mix-blend-mode:normal;color-interpolation:sRGB;color-interpolation-filters:linearRGB;solid-color:#000000;solid-opacity:1;vector-effect:none;fill:#595959;fill-opacity:1;fill-rule:nonzero;stroke:none;stroke-width:0.43552443;stroke-linecap:round;stroke-linejoin:round;stroke-miterlimit:4;stroke-dasharray:none;stroke-dashoffset:0;stroke-opacity:1;color-rendering:auto;image-rendering:auto;shape-rendering:auto;text-rendering:auto;enable-background:accumulate"
         inkscape:connector-curvature="0" />
      <path
         id="path484"
         d="m -42.146484,288.89062 c -0.311536,0.0472 -0.615776,0.22412 -0.902344,0.5293 a 0.26460996,0.26460996 0 0 0 -0.07031,0.16602 c -0.07531,1.25522 0.09213,1.71065 0.207032,2.27539 a 0.26460996,0.26460996 0 0 0 0.0059,0.0234 c 0.300983,1.01517 0.884746,2.16111 1.736328,2.7207 a 0.26460996,0.26460996 0 0 0 0.0078,0.006 c 0.166023,0.10058 0.33849,0.11867 0.5,0.12305 0.161509,0.004 0.289447,9.3e-4 0.4375,-0.0664 0.132398,-0.0602 0.207195,-0.0911 0.283203,-0.13477 0.07601,-0.0437 0.139902,-0.0985 0.203125,-0.16211 0.263263,-0.26486 0.407837,-0.66087 0.398437,-1.10547 a 0.26460996,0.26460996 0 0 0 -0.08203,-0.1875 c -1.095831,-1.03809 -1.662077,-2.27997 -1.712891,-3.7832 a 0.26460996,0.26460996 0 0 0 -0.138672,-0.22461 c -0.263723,-0.14211 -0.56151,-0.22686 -0.873046,-0.17969 z"
         style="color:#000000;font-style:normal;font-variant:normal;font-weight:normal;font-stretch:normal;font-size:medium;line-height:normal;font-family:sans-serif;font-variant-ligatures:normal;font-variant-position:normal;font-variant-caps:normal;font-variant-numeric:normal;font-variant-alternates:normal;font-feature-settings:normal;text-indent:0;text-align:start;text-decoration:none;text-decoration-line:none;text-decoration-style:solid;text-decoration-color:#000000;letter-spacing:normal;word-spacing:normal;text-transform:none;writing-mode:lr-tb;direction:ltr;text-orientation:mixed;dominant-baseline:auto;baseline-shift:baseline;text-anchor:start;white-space:normal;shape-padding:0;clip-rule:nonzero;display:inline;overflow:visible;visibility:visible;isolation:auto;mix-blend-mode:normal;color-interpolation:sRGB;color-interpolation-filters:linearRGB;solid-color:#000000;solid-opacity:1;vector-effect:none;fill:#cccccc;fill-opacity:1;fill-rule:nonzero;stroke:none;stroke-width:0.43552443;stroke-linecap:round;stroke-linejoin:round;stroke-miterlimit:4;stroke-dasharray:none;stroke-dashoffset:0;stroke-opacity:1;color-rendering:auto;image-rendering:auto;shape-rendering:auto;text-rendering:auto;enable-background:accumulate"
         inkscape:connector-curvature="0" />
      <path
         id="path512"
         d="m -41.398438,289.03906 a 0.26460996,0.26460996 0 0 0 -0.265624,0.25782 c -0.01648,0.72505 0.222091,1.63666 0.513671,2.27929 0.374432,0.82522 0.708785,1.23907 1.361329,1.88281 a 0.26460996,0.26460996 0 0 0 0.449218,-0.17187 c 0.04752,-0.77377 -0.199806,-1.64008 -0.539062,-2.41406 -0.286272,-0.65311 -0.776828,-1.46933 -1.394532,-1.80274 a 0.26460996,0.26460996 0 0 0 -0.125,-0.0312 z"
         style="color:#000000;font-style:normal;font-variant:normal;font-weight:normal;font-stretch:normal;font-size:medium;line-height:normal;font-family:sans-serif;font-variant-ligatures:normal;font-variant-position:normal;font-variant-caps:normal;font-variant-numeric:normal;font-variant-alternates:normal;font-feature-settings:normal;text-indent:0;text-align:start;text-decoration:none;text-decoration-line:none;text-decoration-style:solid;text-decoration-color:#000000;letter-spacing:normal;word-spacing:normal;text-transform:none;writing-mode:lr-tb;direction:ltr;text-orientation:mixed;dominant-baseline:auto;baseline-shift:baseline;text-anchor:start;white-space:normal;shape-padding:0;clip-rule:nonzero;display:inline;overflow:visible;visibility:visible;isolation:auto;mix-blend-mode:normal;color-interpolation:sRGB;color-interpolation-filters:linearRGB;solid-color:#000000;solid-opacity:1;vector-effect:none;fill:#ababab;fill-opacity:1;fill-rule:nonzero;stroke:none;stroke-width:0.43552443;stroke-linecap:round;stroke-linejoin:round;stroke-miterlimit:4;stroke-dasharray:none;stroke-dashoffset:0;stroke-opacity:1;color-rendering:auto;image-rendering:auto;shape-rendering:auto;text-rendering:auto;enable-background:accumulate"
         inkscape:connector-curvature="0" />
      <path
         id="path526"
         d="m -35.476562,285.53516 a 0.26460996,0.26460996 0 0 0 -0.154297,0.0644 c -0.20456,0.17859 -0.343771,0.26279 -0.646485,0.32227 a 0.26460996,0.26460996 0 0 0 -0.15039,0.43164 c 0.455068,0.53281 0.756084,0.8912 1.042968,1.37304 0.272812,0.50667 0.449561,1.0263 0.542969,1.47266 a 0.26460996,0.26460996 0 0 0 0.263672,0.21094 c 0.39148,-0.007 0.517312,0.11505 0.771484,0.38672 a 0.26460996,0.26460996 0 0 0 0.457032,-0.20899 c -0.121887,-1.14357 -0.366643,-1.83116 -0.652344,-2.35351 -0.404972,-0.74042 -0.751678,-1.15088 -1.275391,-1.63086 a 0.26460996,0.26460996 0 0 0 -0.199218,-0.0684 z"
         style="color:#000000;font-style:normal;font-variant:normal;font-weight:normal;font-stretch:normal;font-size:medium;line-height:normal;font-family:sans-serif;font-variant-ligatures:normal;font-variant-position:normal;font-variant-caps:normal;font-variant-numeric:normal;font-variant-alternates:normal;font-feature-settings:normal;text-indent:0;text-align:start;text-decoration:none;text-decoration-line:none;text-decoration-style:solid;text-decoration-color:#000000;letter-spacing:normal;word-spacing:normal;text-transform:none;writing-mode:lr-tb;direction:ltr;text-orientation:mixed;dominant-baseline:auto;baseline-shift:baseline;text-anchor:start;white-space:normal;shape-padding:0;clip-rule:nonzero;display:inline;overflow:visible;visibility:visible;isolation:auto;mix-blend-mode:normal;color-interpolation:sRGB;color-interpolation-filters:linearRGB;solid-color:#000000;solid-opacity:1;vector-effect:none;fill:#595959;fill-opacity:1;fill-rule:nonzero;stroke:none;stroke-width:0.43552443;stroke-linecap:round;stroke-linejoin:round;stroke-miterlimit:4;stroke-dasharray:none;stroke-dashoffset:0;stroke-opacity:1;color-rendering:auto;image-rendering:auto;shape-rendering:auto;text-rendering:auto;enable-background:accumulate"
         inkscape:connector-curvature="0" />
      <path
         id="path456"
         d="m -38.291016,284.43164 a 0.26460996,0.26460996 0 0 0 -0.04492,0.004 c -1.39528,0.19323 -2.121617,0.62445 -2.824218,1.17578 a 0.26460996,0.26460996 0 0 0 -0.0078,0.41015 c 0.240691,0.20399 0.470369,0.33704 0.84375,0.41602 a 0.26460996,0.26460996 0 0 0 0.0039,0.002 c 0.685073,0.13831 1.328651,-0.20293 2.070312,-0.28906 0.372594,0.0468 0.693938,0.10479 1.111328,0.22852 a 0.26460996,0.26460996 0 0 0 0.02539,0.006 c 0.568027,0.11061 1.228439,0.15713 1.833984,-0.39063 a 0.26460996,0.26460996 0 0 0 -0.0039,-0.39648 c -0.731601,-0.62574 -1.658052,-1.12178 -3.007813,-1.16602 z"
         style="color:#000000;font-style:normal;font-variant:normal;font-weight:normal;font-stretch:normal;font-size:medium;line-height:normal;font-family:sans-serif;font-variant-ligatures:normal;font-variant-position:normal;font-variant-caps:normal;font-variant-numeric:normal;font-variant-alternates:normal;font-feature-settings:normal;text-indent:0;text-align:start;text-decoration:none;text-decoration-line:none;text-decoration-style:solid;text-decoration-color:#000000;letter-spacing:normal;word-spacing:normal;text-transform:none;writing-mode:lr-tb;direction:ltr;text-orientation:mixed;dominant-baseline:auto;baseline-shift:baseline;text-anchor:start;white-space:normal;shape-padding:0;clip-rule:nonzero;display:inline;overflow:visible;visibility:visible;isolation:auto;mix-blend-mode:normal;color-interpolation:sRGB;color-interpolation-filters:linearRGB;solid-color:#000000;solid-opacity:1;vector-effect:none;fill:#404040;fill-opacity:1;fill-rule:nonzero;stroke:none;stroke-width:0.43552443;stroke-linecap:round;stroke-linejoin:round;stroke-miterlimit:4;stroke-dasharray:none;stroke-dashoffset:0;stroke-opacity:1;color-rendering:auto;image-rendering:auto;shape-rendering:auto;text-rendering:auto;enable-background:accumulate"
         inkscape:connector-curvature="0" />
      <path
         id="path568"
         d="m -33.582031,290.02734 a 0.26460996,0.26460996 0 0 0 -0.277344,0.25391 c -0.05204,1.20157 -0.254676,2.2261 -1.298828,3.49609 a 0.26460996,0.26460996 0 0 0 0.134765,0.42383 c 0.47517,0.13085 0.859337,0.13281 1.181641,-0.0371 0.322305,-0.16992 0.541538,-0.46525 0.806641,-0.85156 0.337657,-0.49204 0.611005,-1.02517 0.783203,-1.38281 a 0.26460996,0.26460996 0 0 0 0.02344,-0.0781 c 0.09658,-0.68849 -0.33064,-1.43677 -1.267578,-1.80664 a 0.26460996,0.26460996 0 0 0 -0.08594,-0.0176 z"
         style="color:#000000;font-style:normal;font-variant:normal;font-weight:normal;font-stretch:normal;font-size:medium;line-height:normal;font-family:sans-serif;font-variant-ligatures:normal;font-variant-position:normal;font-variant-caps:normal;font-variant-numeric:normal;font-variant-alternates:normal;font-feature-settings:normal;text-indent:0;text-align:start;text-decoration:none;text-decoration-line:none;text-decoration-style:solid;text-decoration-color:#000000;letter-spacing:normal;word-spacing:normal;text-transform:none;writing-mode:lr-tb;direction:ltr;text-orientation:mixed;dominant-baseline:auto;baseline-shift:baseline;text-anchor:start;white-space:normal;shape-padding:0;clip-rule:nonzero;display:inline;overflow:visible;visibility:visible;isolation:auto;mix-blend-mode:normal;color-interpolation:sRGB;color-interpolation-filters:linearRGB;solid-color:#000000;solid-opacity:1;vector-effect:none;fill:#595959;fill-opacity:1;fill-rule:nonzero;stroke:none;stroke-width:0.43552443;stroke-linecap:round;stroke-linejoin:round;stroke-miterlimit:4;stroke-dasharray:none;stroke-dashoffset:0;stroke-opacity:1;color-rendering:auto;image-rendering:auto;shape-rendering:auto;text-rendering:auto;enable-background:accumulate"
         inkscape:connector-curvature="0" />
      <path
         id="path540"
         d="m -34.322266,288.90625 c -0.311536,-0.0472 -0.609323,0.0376 -0.873046,0.17969 a 0.26460996,0.26460996 0 0 0 -0.138672,0.22461 c -0.05081,1.50323 -0.615107,2.74511 -1.710938,3.7832 a 0.26460996,0.26460996 0 0 0 -0.08398,0.1875 c -0.0094,0.44459 0.135174,0.84061 0.398437,1.10547 0.06322,0.0636 0.127118,0.11843 0.203125,0.16211 0.07601,0.0437 0.150805,0.0745 0.283203,0.13476 0.148053,0.0674 0.277944,0.0708 0.439453,0.0664 0.16151,-0.004 0.332024,-0.0225 0.498047,-0.12305 a 0.26460996,0.26460996 0 0 0 0.0098,-0.006 c 0.851582,-0.55959 1.435345,-1.70552 1.736328,-2.7207 a 0.26460996,0.26460996 0 0 0 0.0039,-0.0234 c 0.114902,-0.56474 0.284293,-1.02017 0.208985,-2.27539 a 0.26460996,0.26460996 0 0 0 -0.07227,-0.16601 c -0.286568,-0.30519 -0.590808,-0.48212 -0.902344,-0.5293 z"
         style="color:#000000;font-style:normal;font-variant:normal;font-weight:normal;font-stretch:normal;font-size:medium;line-height:normal;font-family:sans-serif;font-variant-ligatures:normal;font-variant-position:normal;font-variant-caps:normal;font-variant-numeric:normal;font-variant-alternates:normal;font-feature-settings:normal;text-indent:0;text-align:start;text-decoration:none;text-decoration-line:none;text-decoration-style:solid;text-decoration-color:#000000;letter-spacing:normal;word-spacing:normal;text-transform:none;writing-mode:lr-tb;direction:ltr;text-orientation:mixed;dominant-baseline:auto;baseline-shift:baseline;text-anchor:start;white-space:normal;shape-padding:0;clip-rule:nonzero;display:inline;overflow:visible;visibility:visible;isolation:auto;mix-blend-mode:normal;color-interpolation:sRGB;color-interpolation-filters:linearRGB;solid-color:#000000;solid-opacity:1;vector-effect:none;fill:#cccccc;fill-opacity:1;fill-rule:nonzero;stroke:none;stroke-width:0.43552443;stroke-linecap:round;stroke-linejoin:round;stroke-miterlimit:4;stroke-dasharray:none;stroke-dashoffset:0;stroke-opacity:1;color-rendering:auto;image-rendering:auto;shape-rendering:auto;text-rendering:auto;enable-background:accumulate"
         inkscape:connector-curvature="0" />
      <path
         id="path554"
         d="m -35.107422,289.04102 a 0.26460996,0.26460996 0 0 0 -0.101562,0.0293 c -0.617704,0.33341 -1.10826,1.14963 -1.394532,1.80274 -0.339256,0.77398 -0.586581,1.64029 -0.539062,2.41406 a 0.26460996,0.26460996 0 0 0 0.449219,0.17187 c 0.652543,-0.64374 0.986896,-1.05759 1.361328,-1.88281 0.29158,-0.64263 0.530154,-1.55424 0.513672,-2.27929 a 0.26460996,0.26460996 0 0 0 -0.289063,-0.25586 z"
         style="color:#000000;font-style:normal;font-variant:normal;font-weight:normal;font-stretch:normal;font-size:medium;line-height:normal;font-family:sans-serif;font-variant-ligatures:normal;font-variant-position:normal;font-variant-caps:normal;font-variant-numeric:normal;font-variant-alternates:normal;font-feature-settings:normal;text-indent:0;text-align:start;text-decoration:none;text-decoration-line:none;text-decoration-style:solid;text-decoration-color:#000000;letter-spacing:normal;word-spacing:normal;text-transform:none;writing-mode:lr-tb;direction:ltr;text-orientation:mixed;dominant-baseline:auto;baseline-shift:baseline;text-anchor:start;white-space:normal;shape-padding:0;clip-rule:nonzero;display:inline;overflow:visible;visibility:visible;isolation:auto;mix-blend-mode:normal;color-interpolation:sRGB;color-interpolation-filters:linearRGB;solid-color:#000000;solid-opacity:1;vector-effect:none;fill:#ababab;fill-opacity:1;fill-rule:nonzero;stroke:none;stroke-width:0.43552443;stroke-linecap:round;stroke-linejoin:round;stroke-miterlimit:4;stroke-dasharray:none;stroke-dashoffset:0;stroke-opacity:1;color-rendering:auto;image-rendering:auto;shape-rendering:auto;text-rendering:auto;enable-background:accumulate"
         inkscape:connector-curvature="0" />
      <path
         sodipodi:nodetypes="ccccccccsccc"
         d="m -41.765526,288.88981 c -0.136499,-0.0213 -0.299853,-0.0227 -0.380738,10e-4 v -5.3e-4 c -0.311537,0.0472 -0.61622,0.22451 -0.902788,0.52969 -0.05773,-0.20493 -0.110318,0.65079 -0.122272,0.6829 0.881854,-0.11184 0.874686,0.80002 1.400723,2.21872 0.161856,0.49369 1.970336,3.7063 2.44239,1.07072 -0.0011,-0.071 0.02633,0.0156 -0.02514,-0.0333 -0.565888,0.93076 -2.368248,-3.03113 -2.308539,-3.87751 0.02524,-0.35795 0.06098,-0.43417 0.328541,-0.43441 -0.111035,-0.0776 -0.202634,-0.10184 -0.432187,-0.15739 z"
         style="fill:#8c8c8c;fill-opacity:1;stroke:none;stroke-width:0.43552443;stroke-linecap:round;stroke-linejoin:round"
         id="path1428"
         inkscape:connector-curvature="0" />
      <path
         id="path285"
         style="color:#000000;font-style:normal;font-variant:normal;font-weight:normal;font-stretch:normal;font-size:medium;line-height:normal;font-family:sans-serif;font-variant-ligatures:normal;font-variant-position:normal;font-variant-caps:normal;font-variant-numeric:normal;font-variant-alternates:normal;font-feature-settings:normal;text-indent:0;text-align:start;text-decoration:none;text-decoration-line:none;text-decoration-style:solid;text-decoration-color:#000000;letter-spacing:normal;word-spacing:normal;text-transform:none;writing-mode:lr-tb;direction:ltr;text-orientation:mixed;dominant-baseline:auto;baseline-shift:baseline;text-anchor:start;white-space:normal;shape-padding:0;clip-rule:nonzero;display:inline;overflow:visible;visibility:visible;isolation:auto;mix-blend-mode:normal;color-interpolation:sRGB;color-interpolation-filters:linearRGB;solid-color:#000000;solid-opacity:1;vector-effect:none;fill:#262626;fill-opacity:1;fill-rule:nonzero;stroke:none;stroke-width:1.64607561;stroke-linecap:round;stroke-linejoin:round;stroke-miterlimit:4;stroke-dasharray:none;stroke-dashoffset:0;stroke-opacity:1;color-rendering:auto;image-rendering:auto;shape-rendering:auto;text-rendering:auto;enable-background:accumulate"
         d="m -127.00781,21.646484 a 1.0001006,1.0001006 0 0 0 -0.96485,0.958985 c -0.19668,4.541367 -0.9618,8.414881 -4.9082,13.214843 a 1.0001006,1.0001006 0 0 0 0.50977,1.601563 c 0.90446,0.249068 1.72078,0.372313 2.46484,0.353516 2.40754,-2.315035 4.11257,-5.846777 5.0625,-9.050782 a 1.0001006,1.0001006 0 0 0 0.0156,-0.08789 c 0.31631,-1.554703 0.73807,-2.903531 0.83593,-5.347657 -0.70758,-0.61797 -1.56388,-1.164218 -2.60742,-1.576171 a 1.0001006,1.0001006 0 0 0 -0.32422,-0.06641 1.0001006,1.0001006 0 0 0 -0.084,0 z"
         transform="matrix(0.26458333,0,0,0.26458333,0,284.3)"
         inkscape:connector-curvature="0" />
      <path
         sodipodi:nodetypes="cccccccccccccccc"
         d="m -34.552929,288.89455 c -0.212156,0.01 -0.42571,0.0539 -0.612503,0.14907 1.976462,-0.21485 -0.371917,5.10103 -1.450419,5.44387 0.02821,0.0218 0.05679,0.0434 0.08836,0.0615 0.07601,0.0437 0.150789,0.0741 0.283187,0.13436 0.12216,0.0559 0.278257,0.0711 0.439766,0.0667 0.16151,-0.004 0.331621,-0.0224 0.497644,-0.12299 0.0033,-0.002 0.0066,-0.004 0.0098,-0.006 0.851583,-0.55959 1.435347,-1.70559 1.736329,-2.72077 0.0019,-0.008 0.0031,-0.0154 0.0041,-0.0233 0.114901,-0.56474 0.284081,-1.0201 0.208772,-2.27532 -0.0037,-0.062 -0.02916,-0.12073 -0.07183,-0.16588 -0.286567,-0.30519 -0.591251,-0.4825 -0.902787,-0.52968 v 5.3e-4 c -0.07788,-0.0118 -0.154628,-0.0154 -0.230476,-0.0119 z"
         style="fill:#8c8c8c;fill-opacity:1;stroke:none;stroke-width:0.43552443;stroke-linecap:round;stroke-linejoin:round"
         id="path1436-5"
         inkscape:connector-curvature="0" />
      <path
         d="m -38.291285,284.43164 a 0.26460995,0.26460995 0 0 0 -0.04496,0.004 c -1.39528,0.19323 -2.121517,0.62431 -2.824118,1.17564 a 0.26460995,0.26460995 0 0 0 -0.100769,0.21756 c 0.591019,-0.39989 1.27753,-0.70918 2.39572,-0.86403 a 0.26460995,0.26460995 0 0 1 0.04496,-0.004 c 1.349762,0.0442 2.276486,0.5406 3.008085,1.16634 a 0.26460995,0.26460995 0 0 1 0.08837,0.16485 c 0.149953,-0.0704 0.298763,-0.16591 0.444416,-0.29766 a 0.26460995,0.26460995 0 0 0 -0.0036,-0.39636 c -0.731599,-0.62574 -1.658324,-1.1221 -3.008085,-1.16634 z"
         style="color:#000000;font-style:normal;font-variant:normal;font-weight:normal;font-stretch:normal;font-size:medium;line-height:normal;font-family:sans-serif;font-variant-ligatures:normal;font-variant-position:normal;font-variant-caps:normal;font-variant-numeric:normal;font-variant-alternates:normal;font-feature-settings:normal;text-indent:0;text-align:start;text-decoration:none;text-decoration-line:none;text-decoration-style:solid;text-decoration-color:#000000;letter-spacing:normal;word-spacing:normal;text-transform:none;writing-mode:lr-tb;direction:ltr;text-orientation:mixed;dominant-baseline:auto;baseline-shift:baseline;text-anchor:start;white-space:normal;shape-padding:0;clip-rule:nonzero;display:inline;overflow:visible;visibility:visible;isolation:auto;mix-blend-mode:normal;color-interpolation:sRGB;color-interpolation-filters:linearRGB;solid-color:#000000;solid-opacity:1;vector-effect:none;fill:#262626;fill-opacity:1;fill-rule:nonzero;stroke:none;stroke-width:0.43552443;stroke-linecap:round;stroke-linejoin:round;stroke-miterlimit:4;stroke-dasharray:none;stroke-dashoffset:0;stroke-opacity:1;color-rendering:auto;image-rendering:auto;shape-rendering:auto;text-rendering:auto;enable-background:accumulate"
         id="path1443"
         inkscape:connector-curvature="0" />
    </g>
  </g>
</svg>
